# xmcd CD database file
#
# Track frame offsets:
#	150
#	12488
#	29977
#	40649
#	57800
#	73552
#	86467
#	94349
#	113273
#	134036
#	151523
#
# Disc length: 2197 seconds
#
# Revision: 0
# Processed by: cddbd v1.5.2PL0 Copyright (c) Steve Scherf et al.
# Submitted via: CDex 1.51
#
DISCID=8708930b
DTITLE=The Garrison Bros. - .Thinking Of You
DYEAR=1982
DGENRE=Country
TTITLE0=Acadian Saturday Night_The Garrison Bros.Thinking Of You
TTITLE1=I Wish That I'd Never Met You_The Garrison Bros.Thinking Of You
TTITLE2=Thinking Of You_The Garrison Bros.Thinking Of You
TTITLE3=45 Years_The Garrison Bros.Thinking Of You
TTITLE4=Hazel Eyes_The Garrison Bros.Thinking Of You
TTITLE5=Queen Of The Silver Star_The Garrison Bros.Thinking Of You
TTITLE6=Sweet Bird Of Youth_The Garrison Bros.Thinking Of You
TTITLE7=Lonly_The Garrison Bros.Thinking Of You
TTITLE8=Sweet Wyoming Home_The Garrison Bros.Thinking Of You
TTITLE9=Brandywine Tears_The Garrison Bros.Thinking Of You
TTITLE10=Only Love_The Garrison Bros.Thinking Of You
EXTD=YEAR: 1982
EXTT0=
EXTT1=
EXTT2=
EXTT3=
EXTT4=
EXTT5=
EXTT6=
EXTT7=
EXTT8=
EXTT9=
EXTT10=
PLAYORDER=
